:SAMPLES-PER-SECOND 24
:FULLY-SPECIFIED
:DEGREES
390
root  2.19412 46.3796 7.42322 138.348 -37.2304 -176.972
RightUpLeg  -51.7621 -26.1783 -25.199
RightLeg  -2.10908 -17.7599 4.28746
RightFoot  33.2888 -4.78891 12.2215
RightToes  -1.74623e-010 0 -2.59999e-017
Spine  14.7113 -11.1026 -13.0338
Spine1  15.7122 -16.1975 12.7315
HEad  28.4889 11.1203 -1.7237
LeftShoulder1  1.53721 -3.50521 -15.0988
LeftArm  -16.1731 -48.6871 -32.9543
LeftForeArm  17.5694 -59.6618 -17.9126
LeftHand  -0.295898 3.16623 15.0783
RightShoulder  2.28675 4.09627 23.9714
RightArm  -27.5949 10.4396 -2.43089
RightForeArm  16.8789 52.0328 13.1
RightHand  -0.644071 4.70481 -7.68521
LeftUpLeg  19.965 22.2808 25.1811
LeftLeg  67.0477 -5.74013 -13.9409
LeftFoot  35.1675 6.71443 -16.0787
LeftToes  -6.27559e-011 -2.10356e-011 8.24929e-012
391
root  2.21014 47.2697 5.17203 136.894 -22.4718 171.669
RightUpLeg  -61.3235 -27.7265 -7.37122
RightLeg  25.4278 7.73611 2.8741
RightFoot  27.9839 -3.87294 11.3972
RightToes  -1.74623e-010 0 -2.59999e-017
Spine  14.3996 -8.59755 -7.67695
Spine1  20.6067 -7.33627 -2.14947
HEad  29.6866 17.8868 -0.929555
LeftShoulder1  1.75446 -3.56605 -18.2432
LeftArm  -20.5034 -40.5561 -22.0814
LeftForeArm  16.5631 -59.9829 -18.2619
LeftHand  -0.418679 2.75321 18.2217
RightShoulder  2.94204 5.48493 26.7502
RightArm  -30.2328 20.8439 -0.803745
RightForeArm  16.2609 50.3668 12.3411
RightHand  -0.870799 4.97763 -10.0132
LeftUpLeg  13.125 27.2789 28.3466
LeftLeg  96.4065 1.27315 -8.43405
LeftFoot  45.2631 8.49813 -16.2995
LeftToes  -6.27559e-011 -2.10356e-011 8.24929e-012
392
root  2.26331 47.324 2.85216 133.851 -6.04587 161.253
RightUpLeg  -52.7275 -22.3371 -5.04074
RightLeg  42.6618 7.65201 7.02757
RightFoot  29.025 -4.32467 12.387
RightToes  -1.74623e-010 0 -2.59999e-017
Spine  12.8924 -5.19064 -3.23497
Spine1  23.9588 1.92897 -12.3482
HEad  30.2881 25.0789 -0.887321
LeftShoulder1  1.89991 -3.22022 -21.9314
LeftArm  -25.5618 -28.4894 -13.0066
LeftForeArm  16.6321 -62.6855 -20.6719
LeftHand  -0.414677 3.00354 19.9905
RightShoulder  3.08076 5.98082 26.4768
RightArm  -30.0218 36.7328 7.33239
RightForeArm  14.873 47.9464 11.3346
RightHand  -1.24354 6.04325 -12.8605
LeftUpLeg  -1.78822 26.1075 29.693
LeftLeg  116.126 6.12878 -11.7978
LeftFoot  44.7429 7.4039 -14.3867
LeftToes  -6.27559e-011 -2.10356e-011 8.24929e-012
393
root  2.16855 47.76 1.23453 129.465 6.08463 149.872
RightUpLeg  -38.6761 -27.4533 -7.53962
RightLeg  46.3106 1.55507 1.37959
RightFoot  28.7344 -1.80602 5.46314
RightToes  -1.74623e-010 0 -2.59999e-017
Spine  11.7984 -0.853095 -1.00519
Spine1  22.8905 8.6849 -18.8468
HEad  30.4035 31.1071 -0.20096
LeftShoulder1  2.00846 -2.95963 -24.8862
LeftArm  -28.2698 -13.4571 -7.15105
LeftForeArm  27.2776 -70.8236 -31.8315
LeftHand  -0.214916 4.11202 18.8364
RightShoulder  2.73465 5.61183 23.8805
RightArm  -20.7756 48.7028 22.9122
RightForeArm  16.6239 50.7207 12.4307
RightHand  -1.4975 7.11217 -14.1767
LeftUpLeg  -21.8823 18.6374 30.3833
LeftLeg  117.208 4.41398 -8.64116
LeftFoot  41.0026 4.61951 -9.91936
LeftToes  -6.27559e-011 -2.10356e-011 8.24929e-012
394
root  2.18287 47.2199 -1.13558 121.157 13.1303 136.465
RightUpLeg  -21.7023 -30.2146 -22.6456
RightLeg  43.5981 -1.50718 -1.83745
RightFoot  20.5153 0.387577 -0.853523
RightToes  -1.74623e-010 0 -2.59999e-017
Spine  13.0495 2.89567 -1.22372
Spine1  16.5168 13.673 -28.0909
HEad  27.9516 36.8306 -2.02907
LeftShoulder1  2.07335 -3.00115 -25.7207
LeftArm  -27.9505 2.68445 -2.83785
LeftForeArm  51.6072 -77.6726 -56.566
LeftHand  -0.0376012 5.20532 16.797
RightShoulder  2.06805 4.82694 18.3282
RightArm  -6.3969 54.8646 42.4128
RightForeArm  23.0189 58.7268 16.629
RightHand  -1.31107 6.68354 -12.8808
LeftUpLeg  -33.3548 13.2613 38.2768
LeftLeg  98.1006 -0.268426 -0.0432711
LeftFoot  40.5633 3.09662 -6.90431
LeftToes  -6.27559e-011 -2.10356e-011 8.24929e-012
395
root  2.52762 46.0643 -2.90498 111.845 19.2584 124.8
RightUpLeg  -5.77822 -32.1547 -36.7317
RightLeg  29.794 -4.3649 -2.98274
RightFoot  23.036 0.558245 -1.28448
RightToes  -1.74623e-010 0 -2.59999e-017
Spine  13.3604 5.26935 0.176655
Spine1  12.9568 16.5858 -34.5182
HEad  21.567 42.9856 -7.86451
LeftShoulder1  2.05325 -3.05703 -25.1175
LeftArm  -26.5505 20.0533 -0.972876
LeftForeArm  70.2843 -79.3462 -77.6753
LeftHand  -0.0114406 5.41266 13.9318
RightShoulder  1.31767 3.65664 11.2677
RightArm  10.6193 60.1578 66.799
RightForeArm  30.2511 66.9015 23.9846
RightHand  -1.11214 5.84618 -11.7711
LeftUpLeg  -33.063 14.0833 48.4733
LeftLeg  60.6645 -0.560302 -1.37232
LeftFoot  38.9089 2.43359 -5.74423
LeftToes  -6.27559e-011 -2.10356e-011 8.24929e-012
396
root  2.97115 44.3056 -4.09463 107.466 23.9235 119.486
RightUpLeg  6.57456 -33.5138 -45.4707
RightLeg  13.6528 -13.7312 -1.54697
RightFoot  25.8121 0.864724 -1.81526
RightToes  -1.74623e-010 0 -2.59999e-017
Spine  11.4761 5.24403 1.45414
Spine1  11.1006 16.3609 -36.4299
HEad  18.1754 46.2415 -11.8641
LeftShoulder1  1.94245 -2.88908 -24.1598
LeftArm  -25.7411 31.5042 -3.1182
LeftForeArm  71.6049 -79.3732 -78.9094
LeftHand  -0.0448272 5.08335 10.6757
RightShoulder  0.932899 2.57526 7.88394
RightArm  22.9878 60.5313 84.1205
RightForeArm  43.4135 75.1091 42.2464
RightHand  -0.994127 5.25162 -11.121
LeftUpLeg  -33.4931 24.7555 48.0708
LeftLeg  14.0908 -0.655194 2.27323
LeftFoot  36.4616 4.30607 -10.2643
LeftToes  -6.27559e-011 -2.10356e-011 8.24929e-012
397
root  2.25647 41.7792 -6.37946 102.67 27.6676 113.777
RightUpLeg  8.46288 -32.9254 -49.2832
RightLeg  11.7067 -11.7944 0.0811819
RightFoot  11.5332 1.856 -8.80639
RightToes  -1.74623e-010 0 -2.59999e-017
Spine  13.7452 4.89452 4.41167
Spine1  7.5731 15.5327 -37.4511
HEad  14.138 45.9259 -15.0047
LeftShoulder1  1.89634 -2.82299 -23.7354
LeftArm  -25.406 31.553 -5.96097
LeftForeArm  67.9505 -79.1953 -72.0083
LeftHand  -0.0580583 4.88947 9.48472
RightShoulder  0.911575 2.37948 8.03249
RightArm  23.5275 58.0582 83.7986
RightForeArm  90.9341 79.55 94.9716
RightHand  -0.693711 4.00221 -8.79643
LeftUpLeg  -46.1938 36.4491 38.1
LeftLeg  -2.15303 4.32291 -0.31352
LeftFoot  32.5778 3.30006 -8.6235
LeftToes  -6.27559e-011 -2.10356e-011 8.24929e-012
398
root  0.782821 38.8834 -8.77303 89.4062 28.4387 102.367
RightUpLeg  0.253906 -34.4053 -50.1709
RightLeg  23.5696 -1.24952 -0.817385
RightFoot  -12.6762 -0.31908 -19.8726
RightToes  -1.74623e-010 0 -2.59999e-017
Spine  19.9303 4.36004 4.56591
Spine1  9.22201 16.5537 -38.9591
HEad  0.820071 45.5454 -23.4222
LeftShoulder1  2.07236 -3.03823 -25.517
LeftArm  -25.5424 28.1422 -5.84675
LeftForeArm  69.9121 -79.3011 -72.9861
LeftHand  -0.0476891 5.02041 9.36946
RightShoulder  1.15903 3.12152 10.2557
RightArm  24.4128 59.8544 81.4925
RightForeArm  121.341 77.351 125.916
RightHand  -0.517618 3.0294 -7.36169
LeftUpLeg  -59.2026 34.0305 30.2146
LeftLeg  22.0812 3.04378 1.69679
LeftFoot  30.9 2.13485 -6.03343
LeftToes  -6.27559e-011 -2.10356e-011 8.24929e-012
399
root  0.460414 37.6539 -11.7636 74.7805 27.6272 91.2785
RightUpLeg  -8.77446 -26.2354 -51.5786
RightLeg  36.0472 -0.100304 -0.375651
RightFoot  -23.3208 -2.35214 -20.7796
RightToes  -1.74623e-010 0 -2.59999e-017
Spine  20.4808 3.41287 4.45007
Spine1  13.7466 15.2552 -37.483
HEad  -7.30585 45.1668 -31.106
LeftShoulder1  2.28868 -3.17606 -28.1941
LeftArm  -25.2556 26.5661 -5.9303
LeftForeArm  81.1444 -79.7548 -82.7014
LeftHand  -0.00411473 5.62816 8.43866
RightShoulder  1.75362 4.50904 15.0973
RightArm  29.2843 55.8027 81.9789
RightForeArm  120.663 77.8729 123.093
RightHand  -0.542571 2.68746 -8.01058
LeftUpLeg  -62.7712 26.0188 24.2039
LeftLeg  44.677 -1.34489 -0.897206
LeftFoot  36.4642 4.00969 -9.58605
LeftToes  -6.27559e-011 -2.10356e-011 8.24929e-012
400
root  0.47655 37.4045 -13.6493 65.028 27.88 83.6034
RightUpLeg  -14.8786 -16.6393 -50.2823
RightLeg  42.8176 -1.35159 -1.6273
RightFoot  -23.0265 -1.99611 -17.7757
RightToes  -1.74623e-010 0 -2.59999e-017
Spine  17.91 2.28694 4.57241
Spine1  16.2467 13.1512 -33.3764
HEad  1.17885 41.8777 -31.206
LeftShoulder1  2.31496 -3.19037 -28.5196
LeftArm  -22.4882 24.0763 -10.6864
LeftForeArm  101.161 -79.96 -98.1483
LeftHand  0.000892634 5.74029 7.68909
RightShoulder  2.36532 5.23078 20.7875
RightArm  25.0063 41.5548 68.1049
RightForeArm  119.99 78.0436 121.966
RightHand  -0.450805 1.95153 -7.27891
LeftUpLeg  -63.9916 18.374 10.0012
LeftLeg  51.2802 -2.144 -2.37738
LeftFoot  35.4326 5.35411 -12.8898
LeftToes  -6.27559e-011 -2.10356e-011 8.24929e-012
401
root  0.640723 37.8396 -14.9272 55.4617 27.9551 74.6194
RightUpLeg  -16.1286 -7.2998 -46.968
RightLeg  41.0616 -1.52621 -1.69709
RightFoot  -22.0177 -1.78706 -17.3933
RightToes  -1.74623e-010 0 -2.59999e-017
Spine  15.8105 1.20233 5.45185
Spine1  16.448 11.1435 -29.4746
HEad  10.3253 36.2111 -28.2147
LeftShoulder1  2.11944 -3.09247 -25.9843
LeftArm  -19.4195 22.6372 -18.4589
LeftForeArm  131.098 -78.0445 -125.111
LeftHand  -0.00390805 5.64242 8.24885
RightShoulder  2.53007 5.11444 23.193
RightArm  20.4057 27.8455 52.1842
RightForeArm  126.184 76.9877 128.789
RightHand  -0.33095 1.44984 -5.76324
LeftUpLeg  -60.0404 14.1078 -3.22689
LeftLeg  51.6208 -3.47125 -4.23618
LeftFoot  32.5078 7.32467 -18.6009
LeftToes  -6.27559e-011 -2.10356e-011 8.24929e-012
402
root  1.50916 38.5109 -16.0678 44.6579 25.5411 62.3992
RightUpLeg  -17.7855 0.105135 -42.9762
RightLeg  37.2185 1.21893 0.72908
RightFoot  -20.8356 -1.58529 -17.2523
RightToes  -1.74623e-010 0 -2.59999e-017
Spine  13.2009 0.309444 7.89801
Spine1  16.0122 9.20034 -26.3372
HEad  11.8664 31.1658 -24.8361
LeftShoulder1  2.06872 -3.11975 -25.0534
LeftArm  -16.4565 21.8445 -21.4172
LeftForeArm  148.767 -74.2957 -142.259
LeftHand  0.0427067 6.17693 9.561
RightShoulder  2.48882 5.02488 23.0039
RightArm  18.3919 21.5098 42.6837
RightForeArm  128.313 76.2597 132.196
RightHand  -0.330653 1.21115 -5.94791
LeftUpLeg  -54.0601 9.89389 -8.51121
LeftLeg  50.5657 -5.5004 -6.68824
LeftFoot  30.24 9.09244 -24.1733
LeftToes  -6.27559e-011 -2.10356e-011 8.24929e-012
403
root  2.4182 39.1542 -16.7541 33.8739 17.995 51.1587
RightUpLeg  -20.4069 8.78728 -40.985
RightLeg  33.9032 5.15171 3.47082
RightFoot  -17.2923 -0.957389 -16.0652
RightToes  -1.74623e-010 0 -2.59999e-017
Spine  13.0601 0.432657 6.42646
Spine1  15.7213 8.15872 -23.0777
HEad  11.1276 26.0232 -21.8137
LeftShoulder1  2.1317 -3.29683 -25.1736
LeftArm  -13.3602 19.5512 -20.7165
LeftForeArm  153.033 -72.3004 -147.275
LeftHand  0.0491567 6.20004 10.1071
RightShoulder  2.45359 4.99655 22.6676
RightArm  17.0489 21.0488 38.0793
RightForeArm  130.588 75.3992 135.646
RightHand  -0.383638 1.19784 -6.88866
LeftUpLeg  -49.6886 5.16774 -10.5883
LeftLeg  50.7438 -6.56546 -8.11165
LeftFoot  25.4213 9.03869 -27.2438
LeftToes  -6.27559e-011 -2.10356e-011 8.24929e-012
404
root  3.24364 39.7626 -17.1475 24.2739 8.30453 41.3995
RightUpLeg  -21.3228 17.1638 -38.1747
RightLeg  29.687 10.5565 6.19408
RightFoot  -13.8482 -0.439736 -15.8498
RightToes  -1.74623e-010 0 -2.59999e-017
Spine  14.3952 0.72171 4.44107
Spine1  15.4891 7.6834 -20.6859
HEad  8.91352 21.7536 -19.9083
LeftShoulder1  2.11493 -3.34452 -24.6878
LeftArm  -11.3822 17.2695 -19.0715
LeftForeArm  149.132 -72.023 -147.191
LeftHand  -0.00149308 5.60112 9.87912
RightShoulder  2.52727 5.043 23.4139
RightArm  16.2002 22.6259 38.1859
RightForeArm  131.938 75.3635 136.029
RightHand  -0.464487 1.57778 -7.89121
LeftUpLeg  -49.6478 4.67719 -11.6203
LeftLeg  55.9396 -6.25113 -9.37342
LeftFoot  23.2334 8.42154 -27.1122
LeftToes  -6.27559e-011 -2.10356e-011 8.24929e-012
